<svg width="17" height="17" viewBox="0 0 17 17" fill="none" xmlns="http://www.w3.org/2000/svg">
<path fill-rule="evenodd" clip-rule="evenodd" d="M4.50087 2C3.11968 2 2 3.11968 2 4.50087V11.5026C2 12.8838 3.11968 14.0035 4.50087 14.0035H11.5026C12.8838 14.0035 14.0035 12.8838 14.0035 11.5026V4.50087C14.0035 3.11968 12.8838 2 11.5026 2H4.50087ZM0 4.50087C0 2.01511 2.01511 0 4.50087 0H11.5026C13.9884 0 16.0035 2.01511 16.0035 4.50087V11.5026C16.0035 13.9884 13.9884 16.0035 11.5026 16.0035H4.50087C2.01511 16.0035 0 13.9884 0 11.5026V4.50087ZM8.29474 6.18986C7.92009 6.1343 7.53745 6.1983 7.20126 6.37274C6.86507 6.54718 6.59245 6.82319 6.42216 7.16151C6.25188 7.49982 6.19261 7.88321 6.25278 8.25716C6.31295 8.6311 6.4895 8.97655 6.75732 9.24437C7.02514 9.51218 7.37059 9.68874 7.74453 9.74891C8.11847 9.80908 8.50187 9.74981 8.84019 9.57953C9.1785 9.40924 9.45451 9.13662 9.62895 8.80043C9.8034 8.46424 9.86739 8.0816 9.81183 7.70695C9.75516 7.32478 9.57708 6.97098 9.3039 6.69779C9.03071 6.42461 8.67691 6.24653 8.29474 6.18986ZM6.28012 4.59749C6.98971 4.2293 7.79733 4.09423 8.58811 4.21149C9.39473 4.33111 10.1415 4.70697 10.7181 5.28358C11.2947 5.86019 11.6706 6.60696 11.7902 7.41358C11.9075 8.20436 11.7724 9.01198 11.4042 9.72157C11.036 10.4312 10.4534 11.0066 9.73937 11.366C9.02529 11.7254 8.21607 11.8505 7.42679 11.7235C6.63752 11.5965 5.90839 11.2239 5.34311 10.6586C4.77783 10.0933 4.40519 9.36417 4.27818 8.5749C4.15118 7.78562 4.27628 6.9764 4.63569 6.26232C4.99511 5.54825 5.57053 4.96568 6.28012 4.59749ZM11.8521 3.15044C11.2998 3.15044 10.8521 3.59815 10.8521 4.15044C10.8521 4.70272 11.2998 5.15044 11.8521 5.15044H11.8621C12.4144 5.15044 12.8621 4.70272 12.8621 4.15044C12.8621 3.59815 12.4144 3.15044 11.8621 3.15044H11.8521Z" fill="black"/>
</svg>

