<svg width="14" height="14" viewBox="0 0 14 14" fill="none" xmlns="http://www.w3.org/2000/svg">
  <path fill-rule="evenodd" clip-rule="evenodd" d="M3.3641 1.6845C3.3641 0.755058 2.61032 0 1.68288 0C0.752735 0 0 0.755058 0 1.6845C0 2.61499 0.752735 3.37004 1.68288 3.37004C2.61032 3.37004 3.3641 2.61499 3.3641 1.6845ZM3.13302 13.9999H0.231506V4.64855H3.13302V13.9999ZM7.7356 4.64873H4.95264V14.0001H7.85145V9.37381C7.85145 8.15414 8.08316 6.97287 9.59298 6.97287C11.0806 6.97287 11.1007 8.36797 11.1007 9.45229V14.0001H14V8.87058C14 6.35296 13.4576 4.41622 10.5196 4.41622C9.10822 4.41622 8.16171 5.1912 7.77436 5.92633H7.7356V4.64873Z" fill="black"/>
</svg>
