<svg width="18" height="14" viewBox="0 0 18 14" fill="none" xmlns="http://www.w3.org/2000/svg">
  <path fill-rule="evenodd" clip-rule="evenodd" d="M18 1.65715C17.3376 1.93777 16.6263 2.12852 15.8786 2.21381C16.6416 1.77637 17.2274 1.08398 17.5025 0.258614C16.7893 0.663042 15.9984 0.957422 15.1577 1.11607C14.4847 0.429189 13.5242 0 12.4621 0C10.4221 0 8.76945 1.58195 8.76945 3.53439C8.76945 3.81135 8.80109 4.08096 8.86436 4.33958C5.79486 4.19193 3.07429 2.78514 1.25292 0.646535C0.934654 1.16835 0.752516 1.77637 0.752516 2.42382C0.752516 3.64994 1.40438 4.73208 2.39559 5.36578C1.78974 5.34744 1.22032 5.18787 0.722799 4.92375C0.722799 4.93843 0.722799 4.9531 0.722799 4.96777C0.722799 6.67994 1.99585 8.10874 3.68493 8.43338C3.3753 8.51408 3.04937 8.55719 2.71193 8.55719C2.4742 8.55719 2.24317 8.53518 2.01694 8.49391C2.48762 9.89794 3.85078 10.9205 5.46701 10.9489C4.20355 11.8962 2.61128 12.4621 0.880971 12.4621C0.582841 12.4621 0.288545 12.4456 0 12.4116C1.63349 13.4149 3.57565 14 5.66065 14C12.4534 14 16.1681 8.61496 16.1681 3.9434C16.1681 3.79025 16.1642 3.63802 16.1575 3.4867C16.8794 2.98873 17.5054 2.36604 18 1.65715Z" fill="black"/>
</svg>
