<svg width="18" height="12" viewBox="0 0 18 12" fill="none" xmlns="http://www.w3.org/2000/svg">
  <path fill-rule="evenodd" clip-rule="evenodd" d="M16.0325 0.358258C16.807 0.555387 17.4168 1.13623 17.6238 1.87384C18 3.21068 18 6 18 6C18 6 18 8.78923 17.6238 10.1263C17.4168 10.8638 16.807 11.4446 16.0325 11.6418C14.6288 12 9 12 9 12C9 12 3.37122 12 1.96752 11.6418C1.19311 11.4446 0.583159 10.8638 0.376159 10.1263C0 8.78923 0 6 0 6C0 6 0 3.21068 0.376159 1.87384C0.583159 1.13623 1.19311 0.555387 1.96752 0.358258C3.37122 0 9 0 9 0C9 0 14.6288 0 16.0325 0.358258ZM11.8637 6.00011L7.15918 8.5325V3.46753L11.8637 6.00011Z" fill="black"/>
</svg>
